<?xml version="1.0" encoding="utf-8"?>
<!-- Generator: Adobe Illustrator 29.5.1, SVG Export Plug-In . SVG Version: 9.03 Build 0)  -->
<svg version="1.1" id="Layer_1" xmlns="http://www.w3.org/2000/svg" xmlns:xlink="http://www.w3.org/1999/xlink" x="0px" y="0px"
	 viewBox="0 0 1280 640" style="enable-background:new 0 0 1280 640;" xml:space="preserve">
<style type="text/css">
	.st0{fill:none;}
	.st1{fill:url(#SVGID_1_);stroke:#000000;stroke-width:5;stroke-miterlimit:10;}
	.st2{fill:#FFFFFF;stroke:#000000;stroke-width:3;stroke-miterlimit:10;}
	.st3{fill:url(#SVGID_00000006679025727474717280000008453673161898163088_);stroke:#000000;stroke-width:5;stroke-miterlimit:10;}
	.st4{fill:#FFFFFF;}
</style>
<g>
	<rect x="0" class="st0" width="1280" height="640"/>
</g>
<linearGradient id="SVGID_1_" gradientUnits="userSpaceOnUse" x1="371.9895" y1="341.1373" x2="223.3559" y2="202.1274">
	<stop  offset="0" style="stop-color:#E80046"/>
	<stop  offset="3.964507e-03" style="stop-color:#E80046"/>
	<stop  offset="0.2422" style="stop-color:#F90037"/>
	<stop  offset="0.4218" style="stop-color:#FF0032"/>
	<stop  offset="0.5742" style="stop-color:#FC012B"/>
	<stop  offset="0.7929" style="stop-color:#F20518"/>
	<stop  offset="1" style="stop-color:#E60A00"/>
</linearGradient>
<polygon class="st1" points="344.5,197.99 295.79,246.69 247.09,197.99 176.77,268.3 225.48,317.01 295.79,387.32 366.11,317.01 
	414.81,268.3 "/>
<polygon class="st2" points="232.21,280.44 246.85,295.07 261.98,279.94 247.34,265.31 261.98,250.67 246.85,235.54 232.21,250.18 
	217.08,265.31 "/>
<g>
	<path d="M459.02,275.03v13.38h23.13v10.31h-23.13v13.38h25.71v10.31h-36.59v-57.7h36.59v10.31H459.02z"/>
	<path d="M492.62,282.93h9.91v5.16h0.64c1.24-1.93,2.91-3.49,5.04-4.67c2.12-1.18,4.47-1.77,7.05-1.77c3.01,0,5.53,0.7,7.58,2.1
		c2.04,1.4,3.49,3.12,4.35,5.16c1.24-1.99,2.98-3.69,5.24-5.12c2.26-1.42,5-2.14,8.22-2.14c2.42,0,4.51,0.39,6.29,1.17
		c1.77,0.78,3.24,1.87,4.39,3.26c1.15,1.4,2.03,3.08,2.62,5.04c0.59,1.96,0.89,4.1,0.89,6.41v24.9h-10.56v-22.97
		c0-5.37-2.2-8.06-6.61-8.06c-1.4,0-2.63,0.31-3.71,0.93c-1.08,0.62-1.97,1.45-2.7,2.5c-0.73,1.05-1.29,2.3-1.69,3.75
		c-0.4,1.45-0.6,3.01-0.6,4.67v19.18h-10.56v-22.97c0-5.37-2.31-8.06-6.93-8.06c-1.34,0-2.53,0.31-3.55,0.93
		c-1.02,0.62-1.88,1.45-2.58,2.5c-0.7,1.05-1.24,2.3-1.61,3.75c-0.38,1.45-0.56,3.01-0.56,4.67v19.18h-10.56V282.93z"/>
	<path d="M563.53,264.72h10.56v17.33l-0.64,5.64h0.64c0.97-1.66,2.47-3.09,4.51-4.27c2.04-1.18,4.57-1.77,7.58-1.77
		c2.52,0,4.93,0.52,7.21,1.57c2.28,1.05,4.3,2.5,6.04,4.35c1.75,1.85,3.13,4.07,4.15,6.65c1.02,2.58,1.53,5.4,1.53,8.46
		c0,3.06-0.51,5.88-1.53,8.46c-1.02,2.58-2.41,4.79-4.15,6.65c-1.75,1.85-3.76,3.3-6.04,4.35c-2.28,1.05-4.69,1.57-7.21,1.57
		c-3.01,0-5.53-0.59-7.58-1.77c-2.04-1.18-3.54-2.61-4.51-4.27h-0.64v4.75h-9.91V264.72z M584,313.96c1.4,0,2.73-0.27,3.99-0.81
		c1.26-0.54,2.38-1.29,3.34-2.26c0.97-0.97,1.75-2.15,2.34-3.55c0.59-1.4,0.89-2.95,0.89-4.67c0-1.72-0.3-3.28-0.89-4.67
		c-0.59-1.4-1.37-2.58-2.34-3.55c-0.97-0.97-2.08-1.72-3.34-2.26c-1.26-0.54-2.59-0.81-3.99-0.81c-1.4,0-2.73,0.26-3.99,0.77
		c-1.26,0.51-2.38,1.25-3.34,2.22s-1.75,2.15-2.34,3.55c-0.59,1.4-0.89,2.98-0.89,4.75s0.29,3.36,0.89,4.75
		c0.59,1.4,1.37,2.58,2.34,3.55c0.97,0.97,2.08,1.71,3.34,2.22C581.28,313.7,582.61,313.96,584,313.96z"/>
	<path d="M649.28,312.91c-1.83,3.22-4.28,5.83-7.37,7.82c-3.09,1.99-6.86,2.98-11.32,2.98c-3.01,0-5.79-0.52-8.34-1.57
		c-2.55-1.05-4.77-2.51-6.65-4.39c-1.88-1.88-3.34-4.1-4.39-6.65c-1.05-2.55-1.57-5.36-1.57-8.42c0-2.85,0.51-5.55,1.53-8.1
		c1.02-2.55,2.44-4.78,4.27-6.69c1.83-1.91,3.99-3.42,6.49-4.55c2.5-1.13,5.25-1.69,8.26-1.69c3.17,0,5.99,0.52,8.46,1.57
		c2.47,1.05,4.54,2.5,6.21,4.35c1.66,1.85,2.93,4.04,3.79,6.57c0.86,2.53,1.29,5.27,1.29,8.22c0,0.38,0,0.7,0,0.97
		c-0.05,0.32-0.08,0.62-0.08,0.89c-0.05,0.27-0.08,0.56-0.08,0.89h-29.74c0.21,1.61,0.66,3,1.33,4.15c0.67,1.16,1.5,2.12,2.5,2.9
		c0.99,0.78,2.08,1.34,3.26,1.69c1.18,0.35,2.39,0.52,3.63,0.52c2.42,0,4.42-0.55,6-1.65c1.58-1.1,2.83-2.48,3.75-4.15
		L649.28,312.91z M639.69,297.6c-0.05-0.7-0.28-1.48-0.69-2.34c-0.4-0.86-0.99-1.66-1.77-2.42c-0.78-0.75-1.75-1.37-2.9-1.85
		c-1.16-0.48-2.54-0.73-4.15-0.73c-2.26,0-4.24,0.64-5.96,1.93c-1.72,1.29-2.93,3.09-3.63,5.4H639.69z"/>
	<path d="M656.69,282.93h9.91v5.48h0.64c0.48-0.97,1.13-1.85,1.93-2.66c0.81-0.81,1.71-1.51,2.7-2.11c0.99-0.6,2.07-1.08,3.22-1.45
		c1.15-0.37,2.3-0.55,3.42-0.55c1.4,0,2.59,0.15,3.59,0.45c0.99,0.3,1.84,0.69,2.54,1.16l-2.82,9.43c-0.64-0.32-1.36-0.58-2.13-0.77
		c-0.78-0.19-1.73-0.28-2.86-0.28c-1.45,0-2.77,0.28-3.95,0.85c-1.18,0.57-2.19,1.36-3.02,2.39c-0.83,1.03-1.48,2.23-1.93,3.6
		c-0.46,1.38-0.69,2.88-0.69,4.5v19.44h-10.56V282.93z"/>
	<path d="M690.78,264.72h10.88v23.05h24.26v-23.05h10.88v57.7h-10.88v-24.34h-24.26v24.34h-10.88V264.72z"/>
	<path d="M784.5,312.91c-1.83,3.22-4.28,5.83-7.37,7.82c-3.09,1.99-6.86,2.98-11.32,2.98c-3.01,0-5.79-0.52-8.34-1.57
		c-2.55-1.05-4.77-2.51-6.65-4.39c-1.88-1.88-3.34-4.1-4.39-6.65c-1.05-2.55-1.57-5.36-1.57-8.42c0-2.85,0.51-5.55,1.53-8.1
		c1.02-2.55,2.44-4.78,4.27-6.69c1.83-1.91,3.99-3.42,6.49-4.55c2.5-1.13,5.25-1.69,8.26-1.69c3.17,0,5.99,0.52,8.46,1.57
		c2.47,1.05,4.54,2.5,6.21,4.35c1.66,1.85,2.93,4.04,3.79,6.57c0.86,2.53,1.29,5.27,1.29,8.22c0,0.38,0,0.7,0,0.97
		c-0.05,0.32-0.08,0.62-0.08,0.89c-0.05,0.27-0.08,0.56-0.08,0.89h-29.74c0.21,1.61,0.66,3,1.33,4.15c0.67,1.16,1.5,2.12,2.5,2.9
		c0.99,0.78,2.08,1.34,3.26,1.69c1.18,0.35,2.39,0.52,3.63,0.52c2.42,0,4.42-0.55,6-1.65c1.58-1.1,2.83-2.48,3.75-4.15L784.5,312.91
		z M774.91,297.6c-0.05-0.7-0.28-1.48-0.69-2.34c-0.4-0.86-0.99-1.66-1.77-2.42c-0.78-0.75-1.75-1.37-2.9-1.85
		c-1.16-0.48-2.54-0.73-4.15-0.73c-2.26,0-4.24,0.64-5.96,1.93c-1.72,1.29-2.93,3.09-3.63,5.4H774.91z"/>
	<path d="M816.65,318.23h-0.64c-1.24,1.5-2.73,2.79-4.47,3.87c-1.75,1.07-3.99,1.61-6.73,1.61c-2.04,0-3.96-0.34-5.76-1.01
		c-1.8-0.67-3.37-1.6-4.71-2.78c-1.34-1.18-2.39-2.61-3.14-4.27c-0.75-1.67-1.13-3.49-1.13-5.48c0-2.04,0.4-3.88,1.21-5.52
		c0.81-1.64,1.93-3.05,3.38-4.23c1.45-1.18,3.16-2.08,5.12-2.7c1.96-0.62,4.1-0.93,6.41-0.93c2.58,0,4.7,0.2,6.37,0.6
		c1.66,0.4,3.03,0.82,4.11,1.25v-1.21c0-2.1-0.83-3.83-2.5-5.2c-1.67-1.37-3.73-2.05-6.21-2.05c-3.65,0-6.74,1.53-9.27,4.59
		l-7.66-5.24c4.19-5.26,9.91-7.9,17.17-7.9c6.12,0,10.8,1.44,14.02,4.31c3.22,2.88,4.83,7.13,4.83,12.77v23.69h-10.4V318.23z
		 M816.65,306.38c-1.24-0.59-2.51-1.06-3.83-1.41c-1.32-0.35-2.75-0.52-4.31-0.52c-2.53,0-4.47,0.55-5.84,1.65
		c-1.37,1.1-2.05,2.46-2.05,4.07s0.66,2.9,1.97,3.87c1.32,0.97,2.83,1.45,4.55,1.45c1.4,0,2.69-0.25,3.87-0.77
		c1.18-0.51,2.19-1.18,3.02-2.01c0.83-0.83,1.48-1.8,1.93-2.9C816.42,308.7,816.65,307.56,816.65,306.38z"/>
	<path d="M845.34,289.05h0.64c1.07-1.99,2.65-3.59,4.71-4.79c2.07-1.21,4.36-1.81,6.89-1.81c0.91,0,1.64,0.03,2.18,0.08
		c0.54,0.05,1.05,0.16,1.53,0.32v10.48c-0.59-0.27-1.25-0.48-1.97-0.64c-0.72-0.16-1.6-0.24-2.62-0.24c-3.33,0-5.95,1.01-7.86,3.02
		c-1.91,2.01-2.86,4.77-2.86,8.26v19.34h-10.56v-39.49h9.91V289.05z M872.98,291.96h-6.93v-9.03h6.93v-12.09h10.56v12.09h9.67v9.03
		h-9.67v15.78c0,0.94,0.09,1.81,0.28,2.62c0.19,0.8,0.55,1.48,1.09,2.03c0.75,0.89,1.83,1.33,3.22,1.33c0.91,0,1.64-0.09,2.18-0.28
		c0.54-0.19,1.05-0.44,1.53-0.77l2.98,9.27c-1.24,0.59-2.57,1.03-3.99,1.33c-1.42,0.29-3,0.44-4.71,0.44
		c-1.99,0-3.77-0.32-5.36-0.95c-1.59-0.63-2.92-1.49-3.99-2.59c-2.53-2.47-3.79-5.98-3.79-10.53V291.96z"/>
	<path d="M919.96,264.72h10.88v24.74h0.64l21.11-24.74h13.14v0.64l-20.87,23.85l23.05,32.56v0.64h-13.3l-17.17-24.58l-6.61,7.66
		v16.92h-10.88V264.72z"/>
	<path d="M1008.36,312.91c-1.83,3.22-4.28,5.83-7.37,7.82c-3.09,1.99-6.86,2.98-11.32,2.98c-3.01,0-5.79-0.52-8.34-1.57
		c-2.55-1.05-4.77-2.51-6.65-4.39c-1.88-1.88-3.34-4.1-4.39-6.65c-1.05-2.55-1.57-5.36-1.57-8.42c0-2.85,0.51-5.55,1.53-8.1
		c1.02-2.55,2.44-4.78,4.27-6.69c1.83-1.91,3.99-3.42,6.49-4.55c2.5-1.13,5.25-1.69,8.26-1.69c3.17,0,5.99,0.52,8.46,1.57
		c2.47,1.05,4.54,2.5,6.21,4.35c1.66,1.85,2.93,4.04,3.79,6.57c0.86,2.53,1.29,5.27,1.29,8.22c0,0.38,0,0.7,0,0.97
		c-0.05,0.32-0.08,0.62-0.08,0.89c-0.05,0.27-0.08,0.56-0.08,0.89h-29.74c0.21,1.61,0.66,3,1.33,4.15c0.67,1.16,1.5,2.12,2.5,2.9
		c0.99,0.78,2.08,1.34,3.26,1.69c1.18,0.35,2.39,0.52,3.63,0.52c2.42,0,4.42-0.55,6-1.65c1.58-1.1,2.83-2.48,3.75-4.15
		L1008.36,312.91z M998.77,297.6c-0.05-0.7-0.28-1.48-0.69-2.34c-0.4-0.86-0.99-1.66-1.77-2.42c-0.78-0.75-1.75-1.37-2.9-1.85
		c-1.16-0.48-2.54-0.73-4.15-0.73c-2.26,0-4.24,0.64-5.96,1.93c-1.72,1.29-2.93,3.09-3.63,5.4H998.77z"/>
	<path d="M1015.78,282.93h9.91v5.48h0.64c0.48-0.97,1.13-1.85,1.93-2.66c0.81-0.81,1.71-1.51,2.7-2.11c0.99-0.6,2.07-1.08,3.22-1.45
		c1.15-0.37,2.3-0.55,3.42-0.55c1.4,0,2.59,0.15,3.59,0.45c0.99,0.3,1.84,0.69,2.54,1.16l-2.82,9.43c-0.64-0.32-1.36-0.58-2.13-0.77
		c-0.78-0.19-1.73-0.28-2.86-0.28c-1.45,0-2.77,0.28-3.95,0.85c-1.18,0.57-2.19,1.36-3.02,2.39c-0.83,1.03-1.48,2.23-1.93,3.6
		c-0.46,1.38-0.69,2.88-0.69,4.5v19.44h-10.56V282.93z"/>
	<path d="M1058.49,288.09h0.64c1.24-1.99,2.9-3.56,5-4.71c2.09-1.15,4.48-1.73,7.17-1.73c2.47,0,4.65,0.4,6.53,1.21
		c1.88,0.81,3.42,1.95,4.63,3.42c1.21,1.48,2.12,3.25,2.74,5.32c0.62,2.07,0.93,4.37,0.93,6.89v23.93h-10.56v-22.64
		c0-2.85-0.63-4.96-1.89-6.33c-1.26-1.37-3.1-2.06-5.52-2.06c-1.45,0-2.73,0.31-3.83,0.93c-1.1,0.62-2.04,1.45-2.82,2.5
		c-0.78,1.05-1.37,2.28-1.77,3.71c-0.4,1.42-0.6,2.94-0.6,4.55v19.34h-10.56v-39.49h9.91V288.09z"/>
	<path d="M1132.22,312.91c-1.83,3.22-4.28,5.83-7.37,7.82c-3.09,1.99-6.86,2.98-11.32,2.98c-3.01,0-5.79-0.52-8.34-1.57
		c-2.55-1.05-4.77-2.51-6.65-4.39c-1.88-1.88-3.34-4.1-4.39-6.65c-1.05-2.55-1.57-5.36-1.57-8.42c0-2.85,0.51-5.55,1.53-8.1
		c1.02-2.55,2.44-4.78,4.27-6.69c1.83-1.91,3.99-3.42,6.49-4.55c2.5-1.13,5.25-1.69,8.26-1.69c3.17,0,5.99,0.52,8.46,1.57
		c2.47,1.05,4.54,2.5,6.21,4.35c1.66,1.85,2.93,4.04,3.79,6.57c0.86,2.53,1.29,5.27,1.29,8.22c0,0.38,0,0.7,0,0.97
		c-0.05,0.32-0.08,0.62-0.08,0.89c-0.05,0.27-0.08,0.56-0.08,0.89h-29.74c0.21,1.61,0.66,3,1.33,4.15c0.67,1.16,1.5,2.12,2.5,2.9
		c0.99,0.78,2.08,1.34,3.26,1.69c1.18,0.35,2.39,0.52,3.63,0.52c2.42,0,4.42-0.55,6-1.65c1.58-1.1,2.83-2.48,3.75-4.15
		L1132.22,312.91z M1122.64,297.6c-0.05-0.7-0.28-1.48-0.69-2.34c-0.4-0.86-0.99-1.66-1.77-2.42c-0.78-0.75-1.75-1.37-2.9-1.85
		c-1.16-0.48-2.54-0.73-4.15-0.73c-2.26,0-4.24,0.64-5.96,1.93c-1.72,1.29-2.93,3.09-3.63,5.4H1122.64z"/>
	<path d="M1139.64,322.42v-57.7h10.56v57.7H1139.64z"/>
</g>
</svg>
